<svg width="153" height="98" viewBox="0 0 153 98" fill="none" xmlns="http://www.w3.org/2000/svg">
<mask id="path-1-outside-1_11_243" maskUnits="userSpaceOnUse" x="-0.644163" y="-4.47046" width="154.567" height="106.415" fill="black">
<rect fill="white" x="-0.644163" y="-4.47046" width="154.567" height="106.415"/>
<path fill-rule="evenodd" clip-rule="evenodd" d="M62.423 18.3768C103.354 -1.93081 142.81 -4.86375 150.552 11.8256C158.293 28.5151 131.388 58.5073 90.4564 78.8151C49.5256 99.1227 10.0694 102.056 2.32746 85.3673C-5.41394 68.6777 21.4918 38.6846 62.423 18.3768Z"/>
</mask>
<path fill-rule="evenodd" clip-rule="evenodd" d="M62.423 18.3768C103.354 -1.93081 142.81 -4.86375 150.552 11.8256C158.293 28.5151 131.388 58.5073 90.4564 78.8151C49.5256 99.1227 10.0694 102.056 2.32746 85.3673C-5.41394 68.6777 21.4918 38.6846 62.423 18.3768Z" fill="black" fill-opacity="0.01"/>
<path fill-rule="evenodd" clip-rule="evenodd" d="M62.423 18.3768L61.9785 17.481L61.9785 17.481L62.423 18.3768ZM150.552 11.8256L151.459 11.4048L151.459 11.4048L150.552 11.8256ZM90.4564 78.8151L90.9009 79.7109V79.7109L90.4564 78.8151ZM2.32746 85.3673L1.4203 85.7881L1.42032 85.7881L2.32746 85.3673ZM62.423 18.3768L62.8674 19.2726C83.2479 9.16095 103.219 3.39826 119.008 2.22458C126.905 1.63751 133.702 2.20277 138.964 3.90414C144.221 5.60365 147.863 8.40451 149.645 12.2464L150.552 11.8256L151.459 11.4048C149.37 6.90198 145.177 3.81096 139.579 2.00113C133.987 0.193161 126.91 -0.368364 118.859 0.230081C102.752 1.42742 82.529 7.285 61.9785 17.481L62.423 18.3768ZM150.552 11.8256L149.645 12.2464C151.43 16.0943 151.263 20.8021 149.249 26.1237C147.234 31.446 143.4 37.2898 138.012 43.2957C127.24 55.3035 110.392 67.8079 90.012 77.9193L90.4564 78.8151L90.9009 79.7109C111.452 69.5144 128.522 56.8689 139.501 44.6312C144.988 38.5144 148.988 32.4617 151.119 26.8319C153.251 21.2015 153.545 15.9016 151.459 11.4048L150.552 11.8256ZM90.4564 78.8151L90.012 77.9193C69.6316 88.031 49.661 93.7938 33.872 94.9677C25.9744 95.5548 19.1779 94.9897 13.9155 93.2884C8.6588 91.589 5.01679 88.7882 3.23461 84.9464L2.32746 85.3673L1.42032 85.7881C3.5091 90.2908 7.70235 93.3817 13.3002 95.1914C18.8924 96.9993 25.9697 97.5607 34.0203 96.9622C50.1275 95.7646 70.3505 89.9069 90.9009 79.7109L90.4564 78.8151ZM2.32746 85.3673L3.23462 84.9465C1.44976 81.0985 1.61587 76.3907 3.63074 71.069C5.64585 65.7466 9.47953 59.9027 14.8674 53.8966C25.6394 41.8886 42.4876 29.3839 62.8674 19.2726L62.423 18.3768L61.9785 17.481C41.4272 27.6774 24.3569 40.3232 13.3786 52.5611C7.89129 58.678 3.89185 64.7309 1.76031 70.3608C-0.371459 75.9913 -0.665533 81.2912 1.4203 85.7881L2.32746 85.3673Z" fill="#A1A1A1" mask="url(#path-1-outside-1_11_243)"/>
</svg>
