<svg width="393" height="345" viewBox="0 0 393 345" fill="none" xmlns="http://www.w3.org/2000/svg">
<mask id="path-1-outside-1_300_283" maskUnits="userSpaceOnUse" x="39.8658" y="78.8932" width="334.771" height="231.726" fill="black">
<rect fill="white" x="39.8658" y="78.8932" width="334.771" height="231.726"/>
<path d="M176.965 129.113C265.376 85.2488 350.602 78.9135 367.323 114.963C384.045 151.012 325.929 215.795 237.518 259.659C149.108 303.524 63.8817 309.859 47.1604 273.81C30.4391 237.761 88.5548 172.978 176.965 129.113ZM323.155 122.648C312.054 98.7161 248.548 106.358 181.311 139.717C114.073 173.077 68.5656 219.522 79.6666 243.454C90.768 267.386 154.274 259.744 221.511 226.384C288.748 193.025 334.256 146.581 323.155 122.648Z"/>
</mask>
<path d="M176.965 129.113C265.376 85.2488 350.602 78.9135 367.323 114.963C384.045 151.012 325.929 215.795 237.518 259.659C149.108 303.524 63.8817 309.859 47.1604 273.81C30.4391 237.761 88.5548 172.978 176.965 129.113ZM323.155 122.648C312.054 98.7161 248.548 106.358 181.311 139.717C114.073 173.077 68.5656 219.522 79.6666 243.454C90.768 267.386 154.274 259.744 221.511 226.384C288.748 193.025 334.256 146.581 323.155 122.648Z" fill="#C47EEF" fill-opacity="0.2"/>
<path d="M176.965 129.113L175.632 126.426L175.632 126.426L176.965 129.113ZM367.323 114.963L370.045 113.7L370.045 113.7L367.323 114.963ZM237.518 259.659L238.852 262.347V262.347L237.518 259.659ZM47.1604 273.81L44.4389 275.072L44.4389 275.072L47.1604 273.81ZM323.155 122.648L325.876 121.386L325.876 121.386L323.155 122.648ZM181.311 139.717L179.978 137.03V137.03L181.311 139.717ZM79.6666 243.454L76.9451 244.717L76.9451 244.717L79.6666 243.454ZM221.511 226.384L222.844 229.072V229.072L221.511 226.384ZM176.965 129.113L178.299 131.801C222.249 109.995 265.28 97.5873 299.25 95.0621C316.245 93.7988 330.807 95.0213 342.036 98.6515C353.246 102.276 360.881 108.204 364.602 116.225L367.323 114.963L370.045 113.7C365.405 103.696 356.116 96.898 343.881 92.9424C331.664 88.9924 316.259 87.7811 298.806 89.0786C263.88 91.6748 220.092 104.367 175.632 126.426L176.965 129.113ZM367.323 114.963L364.602 116.225C368.331 124.264 368.026 134.184 363.723 145.549C359.419 156.916 351.208 169.451 339.612 182.377C316.431 208.217 280.133 235.167 236.185 256.972L237.518 259.659L238.852 262.347C283.314 240.287 320.279 212.913 344.078 186.383C355.973 173.125 364.681 159.963 369.334 147.673C373.988 135.382 374.677 123.686 370.045 113.7L367.323 114.963ZM237.518 259.659L236.185 256.972C192.235 278.778 149.204 291.185 115.233 293.71C98.239 294.974 83.6765 293.751 72.4482 290.121C61.2373 286.496 53.6023 280.568 49.8818 272.548L47.1604 273.81L44.4389 275.072C49.0791 285.076 58.3678 291.875 70.6025 295.83C82.8198 299.78 98.2247 300.991 115.678 299.694C150.604 297.098 194.391 284.405 238.852 262.347L237.518 259.659ZM47.1604 273.81L49.8818 272.548C46.153 264.509 46.458 254.589 50.761 243.224C55.0647 231.857 63.2757 219.322 74.8716 206.396C98.0523 180.556 134.351 153.605 178.299 131.801L176.965 129.113L175.632 126.426C131.17 148.486 94.2048 175.859 70.4053 202.389C58.511 215.648 49.8027 228.81 45.1497 241.099C40.496 253.39 39.8071 265.087 44.4389 275.072L47.1604 273.81ZM323.155 122.648L325.876 121.386C322.571 114.26 315.524 109.861 306.487 107.616C297.436 105.368 285.956 105.152 272.926 106.72C246.834 109.86 213.816 120.241 179.978 137.03L181.311 139.717L182.644 142.405C216.043 125.834 248.397 115.715 273.643 112.677C286.281 111.156 296.961 111.432 305.041 113.439C313.134 115.45 318.188 119.07 320.433 123.911L323.155 122.648ZM181.311 139.717L179.978 137.03C146.137 153.82 117.653 173.953 98.969 193.022C89.6367 202.546 82.6333 211.922 78.6801 220.596C74.7403 229.241 73.6519 237.617 76.9451 244.717L79.6666 243.454L82.388 242.192C80.1307 237.326 80.5679 230.922 84.1399 223.084C87.6985 215.276 94.1929 206.469 103.255 197.221C121.359 178.744 149.247 158.975 182.644 142.405L181.311 139.717ZM79.6666 243.454L76.9451 244.717C80.2505 251.842 87.2974 256.241 96.3347 258.486C105.385 260.734 116.866 260.95 129.896 259.382C155.988 256.242 189.006 245.86 222.844 229.072L221.511 226.384L220.177 223.697C186.778 240.268 154.425 250.387 129.179 253.425C116.541 254.946 105.861 254.67 97.7811 252.663C89.6877 250.653 84.6334 247.032 82.388 242.192L79.6666 243.454ZM221.511 226.384L222.844 229.072C256.684 212.282 285.168 192.149 303.852 173.081C313.185 163.556 320.188 154.18 324.141 145.507C328.081 136.862 329.169 128.486 325.876 121.386L323.155 122.648L320.433 123.911C322.691 128.777 322.253 135.181 318.681 143.018C315.123 150.826 308.628 159.633 299.567 168.882C281.462 187.358 253.574 207.127 220.177 223.697L221.511 226.384Z" fill="#A1A1A1" fill-opacity="0.3" mask="url(#path-1-outside-1_300_283)"/>
<mask id="path-3-outside-2_300_283" maskUnits="userSpaceOnUse" x="119.956" y="129.965" width="154.567" height="106.415" fill="black">
<rect fill="white" x="119.956" y="129.965" width="154.567" height="106.415"/>
<path d="M183.023 152.812C223.954 132.504 263.411 129.571 271.153 146.261C278.894 162.95 251.988 192.943 211.057 213.25C170.126 233.558 130.669 236.491 122.927 219.802C115.186 203.112 142.092 173.12 183.023 152.812Z"/>
</mask>
<path d="M183.023 152.812C223.954 132.504 263.411 129.571 271.153 146.261C278.894 162.95 251.988 192.943 211.057 213.25C170.126 233.558 130.669 236.491 122.927 219.802C115.186 203.112 142.092 173.12 183.023 152.812Z" fill="black" fill-opacity="0.01"/>
<path d="M183.023 152.812L182.578 151.916V151.916L183.023 152.812ZM271.153 146.261L272.06 145.84L272.06 145.84L271.153 146.261ZM211.057 213.25L211.502 214.146V214.146L211.057 213.25ZM122.927 219.802L122.02 220.222L122.02 220.222L122.927 219.802ZM183.023 152.812L183.467 153.708C203.848 143.596 223.819 137.833 239.608 136.66C247.506 136.073 254.302 136.638 259.565 138.339C264.821 140.039 268.463 142.84 270.245 146.682L271.153 146.261L272.06 145.84C269.971 141.337 265.778 138.246 260.18 136.436C254.588 134.628 247.51 134.067 239.46 134.665C223.352 135.862 203.129 141.72 182.578 151.916L183.023 152.812ZM271.153 146.261L270.245 146.682C272.03 150.53 271.864 155.237 269.849 160.559C267.834 165.881 264 171.725 258.612 177.731C247.84 189.739 230.992 202.243 210.613 212.355L211.057 213.25L211.502 214.146C232.053 203.95 249.123 191.304 260.101 179.067C265.588 172.95 269.588 166.897 271.719 161.267C273.851 155.637 274.145 150.337 272.06 145.84L271.153 146.261ZM211.057 213.25L210.613 212.355C190.232 222.466 170.261 228.229 154.472 229.403C146.574 229.99 139.778 229.424 134.515 227.723C129.258 226.024 125.616 223.223 123.834 219.381L122.927 219.802L122.02 220.222C124.109 224.725 128.302 227.816 133.9 229.626C139.492 231.434 146.569 231.996 154.62 231.397C170.728 230.2 190.951 224.342 211.502 214.146L211.057 213.25ZM122.927 219.802L123.834 219.381C122.05 215.533 122.216 210.825 124.231 205.503C126.246 200.181 130.08 194.337 135.467 188.331C146.239 176.324 163.087 163.819 183.467 153.708L183.023 152.812L182.578 151.916C162.027 162.113 144.957 174.758 133.979 186.996C128.491 193.113 124.492 199.165 122.36 204.795C120.228 210.426 119.934 215.725 122.02 220.222L122.927 219.802Z" fill="#A1A1A1" fill-opacity="0.5" mask="url(#path-3-outside-2_300_283)"/>
<path d="M169.589 112.127C231.405 81.457 292.068 63.9288 340.152 60.3542C364.197 58.5667 385.044 60.2727 401.301 65.5288C417.556 70.7839 429.135 79.5554 434.837 91.8479C440.539 104.14 439.907 118.971 433.698 135.371C427.487 151.775 415.726 169.659 399.33 187.936C366.542 224.486 315.358 262.45 253.542 293.12C191.725 323.79 131.062 341.318 82.9786 344.893C58.934 346.68 38.0865 344.974 21.8291 339.718C5.57492 334.463 -6.005 325.692 -11.7069 313.399C-17.4088 301.106 -16.7766 286.276 -10.5672 269.876C-4.35657 253.472 7.40404 235.588 23.8001 217.311C56.5883 180.761 107.772 142.797 169.589 112.127Z" stroke="#D9D9D9" stroke-width="2"/>
</svg>
